<svg width="104" height="29" viewBox="0 0 104 29" fill="none" xmlns="http://www.w3.org/2000/svg">
<path d="M17.936 20.548C17.936 22.012 17.576 23.344 16.856 24.544C16.136 25.72 15.056 26.656 13.616 27.352C12.176 28.024 10.364 28.36 8.18 28.36C7.172 28.36 6.236 28.3 5.372 28.18C4.508 28.06 3.68 27.892 2.888 27.676C2.12 27.436 1.364 27.136 0.62 26.776V21.196C1.916 21.796 3.236 22.3 4.58 22.708C5.948 23.116 7.256 23.32 8.504 23.32C9.296 23.32 9.932 23.224 10.412 23.032C10.916 22.816 11.276 22.54 11.492 22.204C11.732 21.844 11.852 21.436 11.852 20.98C11.852 20.428 11.66 19.96 11.276 19.576C10.916 19.168 10.376 18.784 9.656 18.424C8.936 18.04 8.06 17.608 7.028 17.128C6.26 16.792 5.504 16.408 4.76 15.976C4.04 15.52 3.38 15.004 2.78 14.428C2.204 13.828 1.736 13.12 1.376 12.304C1.04 11.464 0.872 10.48 0.872 9.352C0.872 7.744 1.244 6.4 1.988 5.32C2.756 4.216 3.824 3.376 5.192 2.8C6.56 2.224 8.168 1.936 10.016 1.936C11.528 1.936 12.92 2.104 14.192 2.44C15.464 2.776 16.7 3.208 17.9 3.736L15.956 8.524C14.804 8.02 13.724 7.636 12.716 7.372C11.732 7.084 10.772 6.94 9.836 6.94C9.188 6.94 8.648 7.036 8.216 7.228C7.784 7.396 7.46 7.648 7.244 7.984C7.028 8.296 6.92 8.668 6.92 9.1C6.92 9.604 7.088 10.048 7.424 10.432C7.76 10.792 8.288 11.164 9.008 11.548C9.728 11.932 10.676 12.4 11.852 12.952C13.124 13.528 14.216 14.152 15.128 14.824C16.04 15.496 16.736 16.288 17.216 17.2C17.696 18.088 17.936 19.204 17.936 20.548ZM30.8412 23.536C31.4652 23.536 32.0412 23.476 32.5692 23.356C33.0972 23.236 33.6372 23.08 34.1892 22.888V27.352C33.5412 27.64 32.7972 27.88 31.9572 28.072C31.1172 28.264 30.1212 28.36 28.9692 28.36C27.7452 28.36 26.6532 28.168 25.6932 27.784C24.7572 27.376 24.0132 26.692 23.4612 25.732C22.9332 24.748 22.6692 23.392 22.6692 21.664V12.772H20.1492V10.252L23.1732 8.308L24.8292 4.132H28.7172V8.236H33.9732V12.772H28.7172V21.448C28.7172 22.144 28.9092 22.672 29.2932 23.032C29.6772 23.368 30.1932 23.536 30.8412 23.536ZM44.0276 28H37.9436V0.639998H44.0276V28ZM57.7607 7.876C59.6327 7.876 61.2407 8.224 62.5847 8.92C63.9527 9.592 64.9967 10.6 65.7167 11.944C66.4607 13.264 66.8327 14.908 66.8327 16.876V19.684H54.3407C54.3887 20.98 54.8087 22.012 55.6007 22.78C56.3927 23.548 57.5207 23.932 58.9847 23.932C60.2567 23.932 61.4087 23.812 62.4407 23.572C63.4727 23.332 64.5407 22.948 65.6447 22.42V26.92C64.6847 27.424 63.6527 27.784 62.5487 28C61.4447 28.24 60.0887 28.36 58.4807 28.36C56.4887 28.36 54.7127 28 53.1527 27.28C51.6167 26.56 50.4047 25.456 49.5167 23.968C48.6527 22.456 48.2207 20.548 48.2207 18.244C48.2207 15.892 48.6167 13.96 49.4087 12.448C50.2007 10.912 51.3167 9.772 52.7567 9.028C54.1967 8.26 55.8647 7.876 57.7607 7.876ZM57.8687 12.088C56.9327 12.088 56.1527 12.388 55.5287 12.988C54.9287 13.564 54.5687 14.488 54.4487 15.76H61.2527C61.2527 15.064 61.1207 14.44 60.8567 13.888C60.6167 13.336 60.2447 12.904 59.7407 12.592C59.2367 12.256 58.6127 12.088 57.8687 12.088ZM85.1401 22.024C85.1401 23.32 84.8401 24.448 84.2401 25.408C83.6641 26.344 82.7521 27.076 81.5041 27.604C80.2561 28.108 78.6721 28.36 76.7521 28.36C75.3601 28.36 74.1361 28.276 73.0801 28.108C72.0481 27.94 71.0041 27.64 69.9481 27.208V22.312C71.1001 22.816 72.3001 23.212 73.5481 23.5C74.8201 23.788 75.8761 23.932 76.7161 23.932C77.6281 23.932 78.2881 23.812 78.6961 23.572C79.1041 23.332 79.3081 22.996 79.3081 22.564C79.3081 22.252 79.2001 21.976 78.9841 21.736C78.7921 21.496 78.3841 21.22 77.7601 20.908C77.1601 20.596 76.2601 20.2 75.0601 19.72C73.8841 19.216 72.9121 18.7 72.1441 18.172C71.4001 17.644 70.8361 17.008 70.4521 16.264C70.0921 15.52 69.9121 14.608 69.9121 13.528C69.9121 11.656 70.6321 10.252 72.0721 9.316C73.5361 8.356 75.4681 7.876 77.8681 7.876C79.1401 7.876 80.3401 8.008 81.4681 8.272C82.5961 8.536 83.7601 8.944 84.9601 9.496L83.2321 13.6C82.5841 13.312 81.9361 13.06 81.2881 12.844C80.6641 12.628 80.0641 12.46 79.4881 12.34C78.9121 12.22 78.3721 12.16 77.8681 12.16C77.1961 12.16 76.6801 12.256 76.3201 12.448C75.9601 12.616 75.7801 12.88 75.7801 13.24C75.7801 13.504 75.8761 13.756 76.0681 13.996C76.2841 14.212 76.6801 14.452 77.2561 14.716C77.8561 14.98 78.7201 15.352 79.8481 15.832C80.9761 16.288 81.9361 16.768 82.7281 17.272C83.5201 17.776 84.1201 18.4 84.5281 19.144C84.9361 19.888 85.1401 20.848 85.1401 22.024ZM103.351 22.024C103.351 23.32 103.051 24.448 102.451 25.408C101.875 26.344 100.963 27.076 99.7151 27.604C98.4671 28.108 96.8831 28.36 94.9631 28.36C93.5711 28.36 92.3471 28.276 91.2911 28.108C90.2591 27.94 89.2151 27.64 88.1591 27.208V22.312C89.3111 22.816 90.5111 23.212 91.7591 23.5C93.0311 23.788 94.0871 23.932 94.9271 23.932C95.8391 23.932 96.4991 23.812 96.9071 23.572C97.3151 23.332 97.5191 22.996 97.5191 22.564C97.5191 22.252 97.4111 21.976 97.1951 21.736C97.0031 21.496 96.5951 21.22 95.9711 20.908C95.3711 20.596 94.4711 20.2 93.2711 19.72C92.0951 19.216 91.1231 18.7 90.3551 18.172C89.6111 17.644 89.0471 17.008 88.6631 16.264C88.3031 15.52 88.1231 14.608 88.1231 13.528C88.1231 11.656 88.8431 10.252 90.2831 9.316C91.7471 8.356 93.6791 7.876 96.0791 7.876C97.3511 7.876 98.5511 8.008 99.6791 8.272C100.807 8.536 101.971 8.944 103.171 9.496L101.443 13.6C100.795 13.312 100.147 13.06 99.4991 12.844C98.8751 12.628 98.2751 12.46 97.6991 12.34C97.1231 12.22 96.5831 12.16 96.0791 12.16C95.4071 12.16 94.8911 12.256 94.5311 12.448C94.1711 12.616 93.9911 12.88 93.9911 13.24C93.9911 13.504 94.0871 13.756 94.2791 13.996C94.4951 14.212 94.8911 14.452 95.4671 14.716C96.0671 14.98 96.9311 15.352 98.0591 15.832C99.1871 16.288 100.147 16.768 100.939 17.272C101.731 17.776 102.331 18.4 102.739 19.144C103.147 19.888 103.351 20.848 103.351 22.024Z" fill="black"/>
</svg>
